<?xml version="1.0" encoding="iso-8859-1"?>
<!-- Generator: Adobe Illustrator 19.0.0, SVG Export Plug-In . SVG Version: 6.00 Build 0)  -->
<svg version="1.1" id="Capa_1" xmlns="http://www.w3.org/2000/svg" xmlns:xlink="http://www.w3.org/1999/xlink" x="0px" y="0px"
	 viewBox="0 0 512 512" style="enable-background:new 0 0 512 512;" xml:space="preserve">
<path style="fill:#0071BC;" d="M459.034,379.586v105.931c0,14.627,11.855,26.483,26.483,26.483S512,500.145,512,485.517V379.586
	H459.034z"/>
<path style="fill:#E6E6E6;" d="M432.552,0c14.627,0,26.483,11.855,26.483,26.483v459.034c0,14.627,11.855,26.483,26.483,26.483
	H79.448c-14.627,0-26.483-11.855-26.483-26.483V26.483C52.966,11.855,64.821,0,79.448,0H432.552z"/>
<path style="fill:#0071BC;" d="M79.448,0h353.103c14.627,0,26.483,11.855,26.483,26.483v44.138H52.966V26.483
	C52.966,11.855,64.821,0,79.448,0z"/>
<g>
	<path style="fill:#29ABE2;" d="M97.103,114.759h105.931V220.69H97.103V114.759z"/>
	<path style="fill:#29ABE2;" d="M97.103,264.828h317.793v70.621H97.103V264.828z"/>
</g>
<path style="fill:#DA4836;" d="M344.276,459.034l70.621-35.31l-70.621-35.31H0v70.621H344.276z"/>
<path style="fill:#F8CF26;" d="M44.138,388.414h35.31v70.621h-35.31V388.414z"/>
<path style="fill:#FBB03B;" d="M0,388.414h44.138v70.621H0V388.414z"/>
<path style="fill:#C69C6D;" d="M344.276,388.414l70.621,35.31l-70.621,35.31V388.414z"/>
<path style="fill:#F7931E;" d="M79.448,423.724h264.828v35.31H79.448V423.724z"/>
<g>
	<path style="fill:#999999;" d="M238.345,141.241h185.379v17.655H238.345V141.241z"/>
	<path style="fill:#999999;" d="M238.345,176.552h185.379v17.655H238.345V176.552z"/>
	<path style="fill:#999999;" d="M238.345,211.862h150.069v17.655H238.345V211.862z"/>
	<path style="fill:#999999;" d="M308.966,105.931h114.759v17.655H308.966V105.931z"/>
	<path style="fill:#999999;" d="M273.655,105.931h17.655v17.655h-17.655V105.931z"/>
</g>
<path style="fill:#DA4836;" d="M79.448,26.483h17.655v17.655H79.448V26.483z"/>
<path style="fill:#F8CF26;" d="M114.759,26.483h17.655v17.655h-17.655V26.483z"/>
<path style="fill:#3DBF50;" d="M150.069,26.483h17.655v17.655h-17.655V26.483z"/>
<g>
</g>
<g>
</g>
<g>
</g>
<g>
</g>
<g>
</g>
<g>
</g>
<g>
</g>
<g>
</g>
<g>
</g>
<g>
</g>
<g>
</g>
<g>
</g>
<g>
</g>
<g>
</g>
<g>
</g>
</svg>
