<svg id="Capa_1" enable-background="new 0 0 512 512" height="512" viewBox="0 0 512 512" width="512" xmlns="http://www.w3.org/2000/svg"><g><path d="m117.733 97.678v124.699h-97.959v-89.755c0-19.295 15.648-34.944 34.944-34.944h17.863z" fill="#bed8fb"/><path d="m492.22 196.528v274.389c0 22.695-18.378 41.083-41.063 41.083h-337.487c-14.536 0-27.3-7.551-34.604-18.935-2.442-3.802-4.275-8.046-5.357-12.568l-.154-23.488-.958-139.878v-276.048c0-22.694 18.389-41.083 41.073-41.083h182.033c16.359 0 69.331 45.174 116.163 92.747 42.743 43.422 80.354 88.843 80.354 103.781z" fill="#ddeafb"/><path d="m492.226 196.528v100.515c0-.113-.01-.227-.01-.35-3.091-123.333-103.554-129.04-136.406-161.893l56.062-42.052c42.732 43.421 80.354 88.842 80.354 103.78z" fill="#cbe2ff"/><path d="m295.693 0h-100.515c.113 0 .227.01.35.01 123.333 3.091 129.04 103.554 161.893 136.406l42.052-56.062c-43.422-42.732-88.843-80.354-103.78-80.354z" fill="#cbe2ff"/><path d="m492.225 196.533v17.377c0-36.586-29.668-66.253-66.253-66.253h-40.324c-22.684 0-41.081-18.397-41.081-41.081v-40.323c0-36.586-29.667-66.253-66.253-66.253h17.377c31.29 0 61.308 12.433 83.433 34.557l78.543 78.543c22.125 22.125 34.558 52.143 34.558 83.433z" fill="#bed8fb"/><path d="m350.705 346.965v92.139c0 29.803-24.158 53.961-53.961 53.961h-217.678c-2.442-3.802-4.275-8.046-5.357-12.568l-.154-23.488-.958-139.878v-24.127h224.147c29.803 0 53.961 24.158 53.961 53.961z" fill="#bed8fb"/><path d="m385.649 221.526v187.692c0 29.803-24.158 53.961-53.961 53.961h-276.964c-1.04 0-2.06-.041-3.08-.144-17.853-1.545-31.863-16.534-31.863-34.8v-295.613c0 9.643 3.915 18.378 10.24 24.704 5.635 5.645 13.197 9.375 21.623 10.096 1.02.103 2.04.144 3.08.144h276.964c29.804-.001 53.961 24.157 53.961 53.96z" fill="#617881"/><path d="m334.139 246.45v137.838c0 2.534-.34 4.986-.989 7.304-3.194 11.579-13.804 20.078-26.393 20.078h-210.538c-7.932 0-14.999-3.698-19.553-9.478-3.369-4.244-5.378-9.611-5.378-15.453v-142.741c0-13.763 11.157-24.92 24.93-24.92h210.538c15.124 0 27.383 12.26 27.383 27.372z" fill="#80b4fb"/><circle cx="138.973" cy="279.021" fill="#f1d333" r="26.871"/><path d="m205.614 411.671h-109.395c-7.932 0-14.999-3.698-19.553-9.478l59.555-57.422z" fill="#eab14d"/><path d="m333.15 391.593c-3.194 11.579-13.804 20.078-26.393 20.078h-149.727l98.465-94.952z" fill="#f1d333"/><path d="m51.644 167.421v295.614c-17.853-1.545-31.863-16.534-31.863-34.8v-295.613c0 9.643 3.915 18.378 10.24 24.704 5.635 5.645 13.196 9.374 21.623 10.095z" fill="#475959"/></g></svg>