<svg height="512" viewBox="0 0 64 64" width="512" xmlns="http://www.w3.org/2000/svg"><g id="website-megaphone-mobile-online-Digital_Marketing" data-name="website-megaphone-mobile-online-Digital Marketing"><path d="m3 11h52v38h-52z" fill="#a094f7"/><path d="m3 3h52v8h-52z" fill="#6452e2"/><rect fill="#e8e5fb" height="40" rx="2" width="26" x="35" y="21"/><path d="m35 25h26v26h-26z" fill="#3780ea"/><circle cx="48" cy="56" fill="#f6cc4f" r="2"/><path d="m57 37-1 10h-16l-1-10z" fill="#ec455a"/><path d="m14 31-1 7h-3v-7z" fill="#c7bec5"/><path d="m10 23h7v8h-7z" fill="#e8e5fb"/><path d="m30.41 25.59a1.955 1.955 0 0 1 .59 1.41 2.006 2.006 0 0 1 -2 2h-2v-4h2a1.955 1.955 0 0 1 1.41.59z" fill="#ec455a"/><path d="m7 25h3v4h-3z" fill="#ec455a"/><path d="m27 19v16l-10-4v-8z" fill="#f6cc4f"/><path d="m6 6h2v2h-2z" fill="#ec455a"/><path d="m10 6h2v2h-2z" fill="#f6cc4f"/><path d="m14 6h2v2h-2z" fill="#5bcbfa"/><g fill="#9e2849"><path d="m42 40h2v4h-2z"/><path d="m45 40h2v4h-2z"/><path d="m49 40h2v4h-2z"/><path d="m52 40h2v4h-2z"/></g><path d="m48 35 3-4h-2v-3h-2v3h-2z" fill="#5bcbfa"/><path d="m44 38h-2v-4h-2v-2h3a1 1 0 0 1 1 1z" fill="#9e2849"/><path d="m54 38h-2v-5a1 1 0 0 1 1-1h3v2h-2z" fill="#9e2849"/></g></svg>